<mxfile host="app.diagrams.net" modified="2021-10-19T12:17:33.397Z" agent="5.0 (X11; Linux x86_64) AppleWebKit/537.36 (KHTML, like Gecko) Chrome/93.0.4577.63 Safari/537.36" etag="aOzNRjLjXYGC4pGGjEk6" version="15.5.4" type="github">
  <diagram id="Nnx4uoOhd2IuqeA-QRcW" name="Page-1">
    <mxGraphModel dx="1422" dy="804" grid="1" gridSize="10" guides="1" tooltips="1" connect="1" arrows="1" fold="1" page="1" pageScale="1" pageWidth="827" pageHeight="1169" math="0" shadow="0">
      <root>
        <mxCell id="0" />
        <mxCell id="1" parent="0" />
        <mxCell id="We_AZ48qHWHwds9fPGcc-8" style="rounded=0;orthogonalLoop=1;jettySize=auto;html=1;exitX=0;exitY=1;exitDx=0;exitDy=0;entryX=1;entryY=0;entryDx=0;entryDy=0;strokeWidth=2;" edge="1" parent="1" source="We_AZ48qHWHwds9fPGcc-1" target="We_AZ48qHWHwds9fPGcc-2">
          <mxGeometry relative="1" as="geometry" />
        </mxCell>
        <mxCell id="We_AZ48qHWHwds9fPGcc-13" style="edgeStyle=none;rounded=0;orthogonalLoop=1;jettySize=auto;html=1;exitX=1;exitY=1;exitDx=0;exitDy=0;strokeWidth=2;" edge="1" parent="1" source="We_AZ48qHWHwds9fPGcc-1" target="We_AZ48qHWHwds9fPGcc-3">
          <mxGeometry relative="1" as="geometry" />
        </mxCell>
        <mxCell id="We_AZ48qHWHwds9fPGcc-14" style="edgeStyle=orthogonalEdgeStyle;rounded=0;orthogonalLoop=1;jettySize=auto;html=1;exitX=0;exitY=0.5;exitDx=0;exitDy=0;entryX=0;entryY=0;entryDx=0;entryDy=0;strokeWidth=1;curved=1;strokeColor=#FF3333;" edge="1" parent="1" source="We_AZ48qHWHwds9fPGcc-1" target="We_AZ48qHWHwds9fPGcc-2">
          <mxGeometry relative="1" as="geometry" />
        </mxCell>
        <mxCell id="We_AZ48qHWHwds9fPGcc-1" value="0" style="ellipse;whiteSpace=wrap;html=1;aspect=fixed;strokeWidth=2;" vertex="1" parent="1">
          <mxGeometry x="360" y="80" width="40" height="40" as="geometry" />
        </mxCell>
        <mxCell id="We_AZ48qHWHwds9fPGcc-9" style="edgeStyle=none;rounded=0;orthogonalLoop=1;jettySize=auto;html=1;exitX=0;exitY=1;exitDx=0;exitDy=0;entryX=1;entryY=0;entryDx=0;entryDy=0;strokeWidth=2;" edge="1" parent="1" source="We_AZ48qHWHwds9fPGcc-2" target="We_AZ48qHWHwds9fPGcc-4">
          <mxGeometry relative="1" as="geometry" />
        </mxCell>
        <mxCell id="We_AZ48qHWHwds9fPGcc-12" style="edgeStyle=none;rounded=0;orthogonalLoop=1;jettySize=auto;html=1;exitX=1;exitY=1;exitDx=0;exitDy=0;entryX=0;entryY=0;entryDx=0;entryDy=0;strokeWidth=2;" edge="1" parent="1" source="We_AZ48qHWHwds9fPGcc-2" target="We_AZ48qHWHwds9fPGcc-5">
          <mxGeometry relative="1" as="geometry" />
        </mxCell>
        <mxCell id="We_AZ48qHWHwds9fPGcc-15" style="edgeStyle=orthogonalEdgeStyle;curved=1;rounded=0;orthogonalLoop=1;jettySize=auto;html=1;exitX=0;exitY=0.5;exitDx=0;exitDy=0;entryX=0;entryY=0;entryDx=0;entryDy=0;strokeColor=#FF3333;strokeWidth=1;" edge="1" parent="1" source="We_AZ48qHWHwds9fPGcc-2" target="We_AZ48qHWHwds9fPGcc-4">
          <mxGeometry relative="1" as="geometry" />
        </mxCell>
        <mxCell id="We_AZ48qHWHwds9fPGcc-2" value="1" style="ellipse;whiteSpace=wrap;html=1;aspect=fixed;strokeWidth=2;" vertex="1" parent="1">
          <mxGeometry x="280" y="160" width="40" height="40" as="geometry" />
        </mxCell>
        <mxCell id="We_AZ48qHWHwds9fPGcc-3" value="6" style="ellipse;whiteSpace=wrap;html=1;aspect=fixed;strokeWidth=2;" vertex="1" parent="1">
          <mxGeometry x="440" y="160" width="40" height="40" as="geometry" />
        </mxCell>
        <mxCell id="We_AZ48qHWHwds9fPGcc-10" style="edgeStyle=none;rounded=0;orthogonalLoop=1;jettySize=auto;html=1;exitX=0;exitY=1;exitDx=0;exitDy=0;entryX=1;entryY=0;entryDx=0;entryDy=0;strokeWidth=2;" edge="1" parent="1" source="We_AZ48qHWHwds9fPGcc-4" target="We_AZ48qHWHwds9fPGcc-6">
          <mxGeometry relative="1" as="geometry" />
        </mxCell>
        <mxCell id="We_AZ48qHWHwds9fPGcc-11" style="edgeStyle=none;rounded=0;orthogonalLoop=1;jettySize=auto;html=1;exitX=1;exitY=1;exitDx=0;exitDy=0;entryX=0;entryY=0;entryDx=0;entryDy=0;strokeWidth=2;" edge="1" parent="1" source="We_AZ48qHWHwds9fPGcc-4" target="We_AZ48qHWHwds9fPGcc-7">
          <mxGeometry relative="1" as="geometry" />
        </mxCell>
        <mxCell id="We_AZ48qHWHwds9fPGcc-16" style="edgeStyle=orthogonalEdgeStyle;curved=1;rounded=0;orthogonalLoop=1;jettySize=auto;html=1;exitX=0;exitY=0.5;exitDx=0;exitDy=0;strokeColor=#FF3333;strokeWidth=1;" edge="1" parent="1" source="We_AZ48qHWHwds9fPGcc-4" target="We_AZ48qHWHwds9fPGcc-6">
          <mxGeometry relative="1" as="geometry" />
        </mxCell>
        <mxCell id="We_AZ48qHWHwds9fPGcc-4" value="2" style="ellipse;whiteSpace=wrap;html=1;aspect=fixed;strokeWidth=2;" vertex="1" parent="1">
          <mxGeometry x="200" y="240" width="40" height="40" as="geometry" />
        </mxCell>
        <mxCell id="We_AZ48qHWHwds9fPGcc-20" style="edgeStyle=orthogonalEdgeStyle;curved=1;rounded=0;orthogonalLoop=1;jettySize=auto;html=1;exitX=1;exitY=0.5;exitDx=0;exitDy=0;entryX=1;entryY=1;entryDx=0;entryDy=0;strokeColor=#FF3333;strokeWidth=1;" edge="1" parent="1" source="We_AZ48qHWHwds9fPGcc-5" target="We_AZ48qHWHwds9fPGcc-3">
          <mxGeometry relative="1" as="geometry" />
        </mxCell>
        <mxCell id="We_AZ48qHWHwds9fPGcc-5" value="5" style="ellipse;whiteSpace=wrap;html=1;aspect=fixed;strokeWidth=2;" vertex="1" parent="1">
          <mxGeometry x="360" y="240" width="40" height="40" as="geometry" />
        </mxCell>
        <mxCell id="We_AZ48qHWHwds9fPGcc-18" style="edgeStyle=orthogonalEdgeStyle;curved=1;rounded=0;orthogonalLoop=1;jettySize=auto;html=1;exitX=0.5;exitY=1;exitDx=0;exitDy=0;entryX=0.5;entryY=1;entryDx=0;entryDy=0;strokeColor=#FF3333;strokeWidth=1;" edge="1" parent="1" source="We_AZ48qHWHwds9fPGcc-6" target="We_AZ48qHWHwds9fPGcc-7">
          <mxGeometry relative="1" as="geometry" />
        </mxCell>
        <mxCell id="We_AZ48qHWHwds9fPGcc-6" value="3" style="ellipse;whiteSpace=wrap;html=1;aspect=fixed;strokeWidth=2;" vertex="1" parent="1">
          <mxGeometry x="120" y="320" width="40" height="40" as="geometry" />
        </mxCell>
        <mxCell id="We_AZ48qHWHwds9fPGcc-19" style="edgeStyle=orthogonalEdgeStyle;curved=1;rounded=0;orthogonalLoop=1;jettySize=auto;html=1;exitX=1;exitY=0.5;exitDx=0;exitDy=0;entryX=1;entryY=1;entryDx=0;entryDy=0;strokeColor=#FF3333;strokeWidth=1;" edge="1" parent="1" source="We_AZ48qHWHwds9fPGcc-7" target="We_AZ48qHWHwds9fPGcc-5">
          <mxGeometry relative="1" as="geometry" />
        </mxCell>
        <mxCell id="We_AZ48qHWHwds9fPGcc-7" value="4" style="ellipse;whiteSpace=wrap;html=1;aspect=fixed;strokeWidth=2;" vertex="1" parent="1">
          <mxGeometry x="280" y="320" width="40" height="40" as="geometry" />
        </mxCell>
      </root>
    </mxGraphModel>
  </diagram>
</mxfile>
